Coordinates
version=1
nRows=17
nColumns=38
inDegrees=no

Units are S.I. units (second, meters, Newtons, ...)
If the header above contains a line with 'inDegrees', this indicates whether rotational values are in degrees (yes) or radians (no).

endheader
time	pelvis_tilt	pelvis_list	pelvis_rotation	pelvis_tx	pelvis_ty	pelvis_tz	hip_flexion_r	hip_adduction_r	hip_rotation_r	knee_angle_r	ankle_angle_r	subtalar_angle_r	mtp_angle_r	hip_flexion_l	hip_adduction_l	hip_rotation_l	knee_angle_l	ankle_angle_l	subtalar_angle_l	mtp_angle_l	lumbar_extension	lumbar_bending	lumbar_rotation	arm_flex_r	arm_add_r	arm_rot_r	elbow_flex_r	pro_sup_r	wrist_flex_r	wrist_dev_r	arm_flex_l	arm_add_l	arm_rot_l	elbow_flex_l	pro_sup_l	wrist_flex_l	wrist_dev_l
15	1.83073	1.43058	0.00840902	0.592395	-0.66129	0.938405	0.315865	-0.0223848	-0.0993373	0.506631	-0.340518	0	0	0.170204	-0.140555	-0.017198	0.511401	-0.160063	0	0	-0.174495	0.185319	0.172395	0.528399	-0.634419	0.075963	1.37218	1.5708	0	0	0.531949	-0.501541	0.144795	1.34079	1.5708	0	0
15.01	1.84246	1.43027	-0.00362991	0.591549	-0.665837	0.93877	0.317502	-0.0208968	-0.101474	0.547236	-0.336239	0	0	0.171124	-0.139147	-0.0192268	0.507639	-0.163933	0	0	-0.173169	0.184594	0.171349	0.527761	-0.632669	0.0771069	1.36796	1.5708	0	0	0.528769	-0.50369	0.14277	1.34329	1.5708	0	0
15.02	1.85347	1.43063	-0.0145682	0.590744	-0.670282	0.939065	0.318336	-0.0199684	-0.10198	0.588408	-0.33253	0	0	0.171759	-0.136986	-0.0212281	0.503018	-0.167865	0	0	-0.170861	0.183227	0.16946	0.527583	-0.63071	0.080567	1.36252	1.5708	0	0	0.526557	-0.505508	0.141262	1.34473	1.5708	0	0
15.03	1.86277	1.43112	-0.0230876	0.590002	-0.674622	0.939296	0.318258	-0.0188095	-0.101643	0.62928	-0.328958	0	0	0.172473	-0.134663	-0.0224645	0.497965	-0.172043	0	0	-0.168069	0.181185	0.166635	0.52652	-0.628193	0.0843799	1.35717	1.5708	0	0	0.524866	-0.51006	0.142764	1.34698	1.5708	0	0
15.04	1.87316	1.43147	-0.032231	0.589245	-0.678913	0.939513	0.316339	-0.0171971	-0.100838	0.667313	-0.325134	0	0	0.173053	-0.132352	-0.0230436	0.492818	-0.176215	0	0	-0.165348	0.179555	0.163825	0.524416	-0.625565	0.0871466	1.35269	1.5708	0	0	0.523753	-0.513828	0.144254	1.34877	1.5708	0	0
15.05	1.88823	1.43187	-0.0458163	0.588386	-0.68317	0.939755	0.312008	-0.0153614	-0.0990667	0.702501	-0.319471	0	0	0.172884	-0.129615	-0.0225963	0.487709	-0.180392	0	0	-0.163526	0.17866	0.160888	0.522088	-0.622504	0.0883386	1.34971	1.5708	0	0	0.522258	-0.517336	0.144933	1.35098	1.5708	0	0
15.06	1.90709	1.43233	-0.0629467	0.587533	-0.687411	0.939987	0.305534	-0.0130915	-0.0969573	0.734403	-0.313859	0	0	0.172258	-0.126693	-0.0217485	0.482637	-0.184742	0	0	-0.162422	0.178089	0.157818	0.519699	-0.619186	0.0880606	1.34822	1.5708	0	0	0.520873	-0.520549	0.145313	1.35321	1.5708	0	0
15.07	1.91811	1.4333	-0.0726019	0.586846	-0.691661	0.940047	0.299261	-0.0105006	-0.0942019	0.763519	-0.308605	0	0	0.173003	-0.123318	-0.020505	0.477992	-0.1887	0	0	-0.160044	0.176568	0.155067	0.517519	-0.61621	0.0879698	1.34591	1.5708	0	0	0.519713	-0.523454	0.145473	1.3557	1.5708	0	0
15.08	1.90348	1.4342	-0.0556953	0.58616	-0.695952	0.939808	0.295459	-0.00724721	-0.0928112	0.789426	-0.304295	0	0	0.178553	-0.119672	-0.0157186	0.474711	-0.192353	0	0	-0.153523	0.175299	0.151362	0.514474	-0.613659	0.0884553	1.34366	1.5708	0	0	0.517921	-0.525864	0.145378	1.35837	1.5708	0	0
15.09	1.76173	1.44196	0.0972653	0.585752	-0.700819	0.939797	0.308197	-0.011777	-0.0950746	0.811053	-0.302482	0	0	0.200348	-0.103402	0.0133321	0.457704	-0.208272	0	0	-0.130228	0.164886	0.137997	0.503035	-0.605153	0.0808756	1.34304	1.5708	0	0	0.514966	-0.529994	0.146717	1.36034	1.5708	0	0
15.1	1.81352	1.43762	0.0393989	0.585002	-0.704233	0.939446	0.292785	-0.000454997	-0.091058	0.831471	-0.29882	0	0	0.193672	-0.107289	0.00899187	0.456837	-0.205709	0	0	-0.131621	0.171167	0.143027	0.503214	-0.606845	0.0870517	1.34064	1.5708	0	0	0.511513	-0.529513	0.144524	1.36236	1.5708	0	0
15.11	1.92434	1.43321	-0.0790062	0.584836	-0.708012	0.940286	0.266116	0.0133093	-0.0811029	0.844981	-0.295636	0	0	0.178422	-0.112997	-0.00556162	0.456264	-0.204201	0	0	-0.145949	0.175624	0.150394	0.506256	-0.607638	0.0919746	1.33919	1.5708	0	0	0.510747	-0.529448	0.140888	1.36564	1.5708	0	0
15.12	1.98184	1.43219	-0.141829	0.585021	-0.712244	0.940817	0.247999	0.0222436	-0.0717949	0.858483	-0.294645	0	0	0.172054	-0.114343	-0.0165429	0.455964	-0.213797	0	0	-0.153709	0.175056	0.155175	0.506684	-0.606098	0.092739	1.33926	1.5708	0	0	0.510218	-0.530525	0.137392	1.36963	1.5708	0	0
15.13	2.00546	1.43489	-0.170088	0.585373	-0.716709	0.940944	0.236692	0.0264745	-0.0643717	0.872824	-0.294463	0	0	0.169478	-0.108346	-0.0128147	0.445847	-0.211596	0	0	-0.156118	0.170475	0.158417	0.505932	-0.603374	0.0923988	1.33981	1.5708	0	0	0.50936	-0.53197	0.133557	1.3741	1.5708	0	0
15.14	2.01265	1.43584	-0.180916	0.585521	-0.721008	0.94099	0.225574	0.0336531	-0.0578028	0.882431	-0.295238	0	0	0.170707	-0.105796	-0.0129159	0.441381	-0.214441	0	0	-0.155166	0.168663	0.160452	0.504379	-0.601136	0.0931194	1.33971	1.5708	0	0	0.507308	-0.532412	0.129912	1.3773	1.5708	0	0
15.15	2.02175	1.43665	-0.193986	0.585759	-0.725284	0.941018	0.213314	0.0413617	-0.0512708	0.889008	-0.297788	0	0	0.172215	-0.103946	-0.0155238	0.438443	-0.218787	0	0	-0.154536	0.166965	0.162434	0.503996	-0.599239	0.0956223	1.33839	1.5708	0	0	0.504699	-0.532866	0.125334	1.38066	1.5708	0	0
15.16	2.03186	1.43715	-0.208173	0.585938	-0.72958	0.941136	0.199573	0.0499375	-0.043376	0.89157	-0.302142	0	0	0.173629	-0.102469	-0.019074	0.435897	-0.222776	0	0	-0.154445	0.16613	0.16445	0.503759	-0.597658	0.0981786	1.33768	1.5708	0	0	0.501302	-0.533298	0.120202	1.38412	1.5708	0	0
